<svg width="30" height="34" viewBox="0 0 30 34" fill="none" xmlns="http://www.w3.org/2000/svg">
<path d="M28.3333 10.3333L18.3333 1.56667C17.4166 0.746745 16.2299 0.293449 15 0.293449C13.7701 0.293449 12.5833 0.746745 11.6666 1.56667L1.66664 10.3333C1.13726 10.8068 0.714808 11.3876 0.427428 12.0371C0.140048 12.6866 -0.0056707 13.3898 -2.51153e-05 14.1V28.6667C-2.51153e-05 29.9928 0.526759 31.2645 1.46444 32.2022C2.40212 33.1399 3.67389 33.6667 4.99997 33.6667H25C26.3261 33.6667 27.5978 33.1399 28.5355 32.2022C29.4732 31.2645 30 29.9928 30 28.6667V14.0833C30.0033 13.3759 29.8564 12.6759 29.5691 12.0295C29.2818 11.383 28.8606 10.8049 28.3333 10.3333ZM18.3333 30.3333H11.6666V22C11.6666 21.558 11.8422 21.1341 12.1548 20.8215C12.4674 20.5089 12.8913 20.3333 13.3333 20.3333H16.6666C17.1087 20.3333 17.5326 20.5089 17.8451 20.8215C18.1577 21.1341 18.3333 21.558 18.3333 22V30.3333ZM26.6666 28.6667C26.6666 29.1087 26.491 29.5326 26.1785 29.8452C25.8659 30.1577 25.442 30.3333 25 30.3333H21.6666V22C21.6666 20.6739 21.1399 19.4021 20.2022 18.4645C19.2645 17.5268 17.9927 17 16.6666 17H13.3333C12.0072 17 10.7355 17.5268 9.79777 18.4645C8.86009 19.4021 8.33331 20.6739 8.33331 22V30.3333H4.99997C4.55795 30.3333 4.13402 30.1577 3.82146 29.8452C3.5089 29.5326 3.33331 29.1087 3.33331 28.6667V14.0833C3.33361 13.8467 3.3843 13.6128 3.482 13.3973C3.57971 13.1818 3.72219 12.9895 3.89997 12.8333L13.9 4.08334C14.2041 3.81614 14.5951 3.66878 15 3.66878C15.4048 3.66878 15.7958 3.81614 16.1 4.08334L26.1 12.8333C26.2778 12.9895 26.4202 13.1818 26.5179 13.3973C26.6156 13.6128 26.6663 13.8467 26.6666 14.0833V28.6667Z" fill="#4D44B5"/>
</svg>
