<svg width="233" height="54" viewBox="0 0 233 54" fill="none" xmlns="http://www.w3.org/2000/svg">
<path d="M81.964 35.536H72.532L71.02 40H64.576L73.72 14.728H80.848L89.992 40H83.476L81.964 35.536ZM80.38 30.784L77.248 21.532L74.152 30.784H80.38ZM105.051 40L98.931 31.576V40H92.775V13.36H98.931V28.084L105.015 19.912H112.611L104.259 29.992L112.683 40H105.051ZM113.805 29.92C113.805 27.856 114.189 26.044 114.957 24.484C115.749 22.924 116.817 21.724 118.161 20.884C119.505 20.044 121.005 19.624 122.661 19.624C124.077 19.624 125.313 19.912 126.369 20.488C127.449 21.064 128.277 21.82 128.853 22.756V19.912H135.009V40H128.853V37.156C128.253 38.092 127.413 38.848 126.333 39.424C125.277 40 124.041 40.288 122.625 40.288C120.993 40.288 119.505 39.868 118.161 39.028C116.817 38.164 115.749 36.952 114.957 35.392C114.189 33.808 113.805 31.984 113.805 29.92ZM128.853 29.956C128.853 28.42 128.421 27.208 127.557 26.32C126.717 25.432 125.685 24.988 124.461 24.988C123.237 24.988 122.193 25.432 121.329 26.32C120.489 27.184 120.069 28.384 120.069 29.92C120.069 31.456 120.489 32.68 121.329 33.592C122.193 34.48 123.237 34.924 124.461 34.924C125.685 34.924 126.717 34.48 127.557 33.592C128.421 32.704 128.853 31.492 128.853 29.956ZM138.238 29.92C138.238 27.856 138.622 26.044 139.39 24.484C140.182 22.924 141.25 21.724 142.594 20.884C143.938 20.044 145.438 19.624 147.094 19.624C148.414 19.624 149.614 19.9 150.694 20.452C151.798 21.004 152.662 21.748 153.286 22.684V13.36H159.442V40H153.286V37.12C152.71 38.08 151.882 38.848 150.802 39.424C149.746 40 148.51 40.288 147.094 40.288C145.438 40.288 143.938 39.868 142.594 39.028C141.25 38.164 140.182 36.952 139.39 35.392C138.622 33.808 138.238 31.984 138.238 29.92ZM153.286 29.956C153.286 28.42 152.854 27.208 151.99 26.32C151.15 25.432 150.118 24.988 148.894 24.988C147.67 24.988 146.626 25.432 145.762 26.32C144.922 27.184 144.502 28.384 144.502 29.92C144.502 31.456 144.922 32.68 145.762 33.592C146.626 34.48 147.67 34.924 148.894 34.924C150.118 34.924 151.15 34.48 151.99 33.592C152.854 32.704 153.286 31.492 153.286 29.956ZM182.832 29.632C182.832 30.208 182.796 30.808 182.724 31.432H168.792C168.888 32.68 169.284 33.64 169.98 34.312C170.7 34.96 171.576 35.284 172.608 35.284C174.144 35.284 175.212 34.636 175.812 33.34H182.364C182.028 34.66 181.416 35.848 180.528 36.904C179.664 37.96 178.572 38.788 177.252 39.388C175.932 39.988 174.456 40.288 172.824 40.288C170.856 40.288 169.104 39.868 167.568 39.028C166.032 38.188 164.832 36.988 163.968 35.428C163.104 33.868 162.672 32.044 162.672 29.956C162.672 27.868 163.092 26.044 163.932 24.484C164.796 22.924 165.996 21.724 167.532 20.884C169.068 20.044 170.832 19.624 172.824 19.624C174.768 19.624 176.496 20.032 178.008 20.848C179.52 21.664 180.696 22.828 181.536 24.34C182.4 25.852 182.832 27.616 182.832 29.632ZM176.532 28.012C176.532 26.956 176.172 26.116 175.452 25.492C174.732 24.868 173.832 24.556 172.752 24.556C171.72 24.556 170.844 24.856 170.124 25.456C169.428 26.056 168.996 26.908 168.828 28.012H176.532ZM211.712 19.696C214.208 19.696 216.188 20.452 217.652 21.964C219.14 23.476 219.884 25.576 219.884 28.264V40H213.764V29.092C213.764 27.796 213.416 26.8 212.72 26.104C212.048 25.384 211.112 25.024 209.912 25.024C208.712 25.024 207.764 25.384 207.068 26.104C206.396 26.8 206.06 27.796 206.06 29.092V40H199.94V29.092C199.94 27.796 199.592 26.8 198.896 26.104C198.224 25.384 197.288 25.024 196.088 25.024C194.888 25.024 193.94 25.384 193.244 26.104C192.572 26.8 192.236 27.796 192.236 29.092V40H186.08V19.912H192.236V22.432C192.86 21.592 193.676 20.932 194.684 20.452C195.692 19.948 196.832 19.696 198.104 19.696C199.616 19.696 200.96 20.02 202.136 20.668C203.336 21.316 204.272 22.24 204.944 23.44C205.64 22.336 206.588 21.436 207.788 20.74C208.988 20.044 210.296 19.696 211.712 19.696ZM227.285 17.824C226.205 17.824 225.317 17.512 224.621 16.888C223.949 16.24 223.613 15.448 223.613 14.512C223.613 13.552 223.949 12.76 224.621 12.136C225.317 11.488 226.205 11.164 227.285 11.164C228.341 11.164 229.205 11.488 229.877 12.136C230.573 12.76 230.921 13.552 230.921 14.512C230.921 15.448 230.573 16.24 229.877 16.888C229.205 17.512 228.341 17.824 227.285 17.824ZM230.345 19.912V40H224.189V19.912H230.345Z" fill="white"/>
<rect y="3" width="48" height="48" rx="16" fill="#FB7D5B"/>
<path d="M28.964 35.536H19.532L18.02 40H11.576L20.72 14.728H27.848L36.992 40H30.476L28.964 35.536ZM27.38 30.784L24.248 21.532L21.152 30.784H27.38Z" fill="white"/>
</svg>
