<svg width="30" height="38" viewBox="0 0 30 38" fill="none" xmlns="http://www.w3.org/2000/svg">
<path fill-rule="evenodd" clip-rule="evenodd" d="M0 34C0 36.0712 1.67875 37.75 3.75 37.75H26.25C28.3212 37.75 30 36.0712 30 34C30 31.0825 30 26.3125 30 23.5863C30 21.7738 28.7038 20.2213 26.9213 19.8975C24.2788 19.4163 19.7225 18.5875 17.145 18.12C15.7263 17.8612 14.2737 17.8612 12.855 18.12C10.2775 18.5875 5.72125 19.4163 3.07875 19.8975C1.29625 20.2213 0 21.7738 0 23.5863V34ZM17.885 20.795L19.7612 27.9288C20.0075 28.865 19.6775 29.8588 18.92 30.4638C18.28 30.9738 17.2713 31.7788 16.5713 32.3388C15.6525 33.0713 14.3475 33.0713 13.4287 32.3388C12.7287 31.7788 11.72 30.9738 11.08 30.4638C10.3225 29.8588 9.9925 28.865 10.2388 27.9288L12.115 20.795L3.52625 22.3562C2.9325 22.465 2.5 22.9825 2.5 23.5863V34C2.5 34.69 3.06 35.25 3.75 35.25C8.98 35.25 21.02 35.25 26.25 35.25C26.94 35.25 27.5 34.69 27.5 34C27.5 31.0825 27.5 26.3125 27.5 23.5863C27.5 22.9825 27.0675 22.465 26.4738 22.3562L17.885 20.795ZM15.2038 20.4288C15.0675 20.425 14.9325 20.425 14.7962 20.4288L12.6663 28.5312L14.9887 30.3837C14.995 30.39 15.005 30.39 15.0113 30.3837L17.3337 28.5312L15.2038 20.4288ZM15 0.25C10.5163 0.25 6.875 3.89125 6.875 8.375C6.875 12.8587 10.5163 16.5 15 16.5C19.4837 16.5 23.125 12.8587 23.125 8.375C23.125 3.89125 19.4837 0.25 15 0.25ZM15 2.75C18.105 2.75 20.625 5.27 20.625 8.375C20.625 11.48 18.105 14 15 14C11.895 14 9.375 11.48 9.375 8.375C9.375 5.27 11.895 2.75 15 2.75Z" fill="#4D44B5"/>
</svg>
