<svg width="40" height="40" viewBox="0 0 40 40" fill="none" xmlns="http://www.w3.org/2000/svg">
<path d="M36.2361 21.8435C33.9952 21.0315 31.5092 21.212 29.4073 22.3374L25.9808 23.8788C25.7039 22.3007 24.4919 21.1148 22.9959 21.0692C22.9871 21.069 17.8583 21.0111 17.8583 21.0111C13.7532 19.885 11.0858 21.332 9.56418 22.7579C9.25298 23.0496 8.97931 23.3498 8.73845 23.646C8.32785 23.2038 7.60307 23.0856 7.07452 23.3762L2.41888 25.9354C1.81503 26.2674 1.5523 26.9956 1.80555 27.6358L6.35546 39.1377C6.65444 39.8934 7.57324 40.2274 8.29016 39.8333L12.9458 37.2742C13.3822 37.0343 13.6391 36.5873 13.6532 36.1162H20.6018C21.7352 36.1162 22.8542 35.8185 23.8378 35.2553C23.8378 35.2553 36.9061 27.7589 36.9799 27.6919C38.81 26.027 38.8664 22.7966 36.2361 21.8435C37.2854 22.2237 33.9952 21.0315 36.2361 21.8435ZM8.33179 36.688L4.7964 27.7508L7.03264 26.5216L10.568 35.4588L8.33179 36.688ZM35.2312 25.5773L22.4744 32.8826C21.905 33.2087 21.2574 33.381 20.6015 33.381H12.6915L10.0356 26.667C10.2632 26.2034 10.7113 25.4342 11.4391 24.7522C12.9296 23.3555 14.8942 22.998 17.2787 23.6898C17.3979 23.7244 17.5214 23.7427 17.6455 23.7441L22.9176 23.8034C23.0522 23.815 23.3007 24.1143 23.3007 24.568C23.3007 25.035 23.0441 25.3327 22.9099 25.3327H17.7298V28.0679H22.9099C23.5516 28.0679 24.1488 27.8509 24.6459 27.4791L30.5775 24.8109C30.609 24.7968 30.6397 24.7815 30.67 24.765C32.0929 23.9914 33.7811 23.8636 35.3014 24.4145C35.9031 24.6326 35.4685 25.3364 35.2312 25.5773ZM26.9996 19.7079C21.5665 19.7079 17.1463 15.2874 17.1463 9.85393C17.1463 4.42051 21.5664 0 26.9996 0C32.4327 0 36.8528 4.42051 36.8528 9.85393C36.8528 15.2874 32.4326 19.7079 26.9996 19.7079ZM26.9996 2.73521C23.0771 2.73521 19.886 5.92863 19.886 9.85393C19.886 13.7792 23.0772 16.9727 26.9996 16.9727C30.9221 16.9727 34.1132 13.7791 34.1132 9.85393C34.1132 5.92872 30.922 2.73521 26.9996 2.73521Z" fill="#4D44B5"/>
<path d="M27.6358 8.73923C26.5465 8.29188 26.4622 8.09966 26.4622 7.87684C26.4622 7.73453 26.5329 7.40368 27.1872 7.40368C27.7857 7.40368 28.5315 7.73966 29.0575 8.0859L29.7892 6.16795C29.2668 5.83539 28.632 5.54966 28.0384 5.45829V4.21103H26.0874V5.57966C24.9285 5.94496 24.2143 6.87146 24.2143 8.02479C24.2143 9.55231 25.4363 10.2343 26.63 10.6991C27.5837 11.0828 27.6636 11.3765 27.6636 11.6217C27.6636 11.9989 27.316 12.2426 26.778 12.2426C26.0766 12.2426 25.2609 11.838 24.6899 11.3952L23.9859 13.3439C24.5681 13.7954 25.2421 14.0933 26.0005 14.2045V15.4969H27.9636V14.0901C29.1588 13.7095 29.9238 12.7193 29.9238 11.5354C29.9238 9.87812 28.7011 9.1706 27.6358 8.73923Z" fill="#4D44B5"/>
</svg>
