<svg width="26" height="32" viewBox="0 0 26 32" fill="none" xmlns="http://www.w3.org/2000/svg">
<path d="M22.3677 18.9391V9.86768C22.3677 4.70215 18.1655 0.5 13 0.5C7.83447 0.5 3.63232 4.70215 3.63232 9.86768V18.9397C1.96704 19.4224 0.738281 20.9544 0.738281 22.8374C0.738281 25.0386 2.5293 26.8296 4.73096 26.8296H8.37696V26.877C8.37695 29.4263 10.4507 31.5 13 31.5C15.5493 31.5 17.6231 29.4263 17.6231 26.8769V26.8296H21.2691C23.4707 26.8296 25.2617 25.0386 25.2617 22.7583C25.2617 20.9406 24.033 19.4198 22.3677 18.9391ZM6.63232 9.86768C6.63232 6.35645 9.48877 3.5 13 3.5C16.5112 3.5 19.3677 6.35645 19.3677 9.86768V18.7661H6.63232V9.86768ZM14.6231 26.8769C14.6231 27.772 13.895 28.5 13 28.5C12.105 28.5 11.377 27.772 11.377 26.8769V26.8296H14.623V26.8769H14.6231ZM21.269 23.8296H4.73096C4.1836 23.8296 3.73828 23.3843 3.73828 22.7583C3.73828 22.2114 4.18359 21.7661 4.73096 21.7661H21.2691C21.8164 21.7661 22.2617 22.2114 22.2617 22.8374C22.2617 23.3843 21.8164 23.8296 21.269 23.8296Z" fill="#4D44B5"/>
</svg>
