<svg width="28" height="28" viewBox="0 0 28 28" fill="none" xmlns="http://www.w3.org/2000/svg">
<path d="M10.2637 0.666672L9.41732 4.46615C8.93595 4.69779 8.4758 4.96458 8.0345 5.26563L4.32096 4.09636L0.583984 10.5703L3.39909 13.1484C3.2891 13.9648 3.33892 14.3672 3.39909 14.8516L0.583984 17.4297L4.32096 23.9037L8.0345 22.7344C8.4758 23.0354 8.93595 23.3022 9.41732 23.5339L10.2637 27.3333H17.7376L18.584 23.5339C19.0653 23.3022 19.5255 23.0354 19.9668 22.7344L23.6803 23.9037L27.4173 17.4297L24.6022 14.8516C24.6252 14.5682 24.667 14.2845 24.6673 14C24.6684 13.7069 24.6222 13.4108 24.6022 13.1484L27.4173 10.5703L23.6803 4.09636L19.9668 5.26563C19.5255 4.96458 19.0653 4.69779 18.584 4.46615L17.7376 0.666672H10.2637ZM12.4043 3.33334H15.597L16.2559 6.29167L16.9173 6.55209C17.6656 6.84512 18.365 7.24846 18.9928 7.75001L19.5501 8.19271L22.4408 7.28386L24.0371 10.0495L21.8027 12.099L21.9095 12.8021C22.0352 13.5797 22.0108 14.4746 21.9095 15.1979L21.8027 15.901L24.0371 17.9505L22.4408 20.7162L19.5501 19.8073L18.9928 20.25C18.365 20.7516 17.6656 21.1549 16.9173 21.4479L16.2559 21.7083L15.597 24.6667H12.4043L11.7454 21.7083L11.084 21.4479C10.3357 21.1549 9.6363 20.7516 9.00846 20.25L8.45117 19.8073L5.56055 20.7162L3.96419 17.9505L6.19857 15.901L6.0918 15.1979C5.96156 14.4046 5.98156 13.4967 6.0918 12.8021L6.19857 12.099L3.96419 10.0495L5.56055 7.28386L8.45117 8.19271L9.00846 7.75001C9.6363 7.24846 10.3357 6.84512 11.084 6.55209L11.7454 6.29167L12.4043 3.33334ZM14.0007 8.66667C11.0709 8.66667 8.66732 11.0703 8.66732 14C8.66732 16.9297 11.0709 19.3333 14.0007 19.3333C16.9304 19.3333 19.334 16.9297 19.334 14C19.334 11.0703 16.9304 8.66667 14.0007 8.66667ZM14.0007 11.3333C15.4892 11.3333 16.6673 12.5115 16.6673 14C16.6673 15.4886 15.4892 16.6667 14.0007 16.6667C12.5121 16.6667 11.334 15.4886 11.334 14C11.334 12.5115 12.5121 11.3333 14.0007 11.3333Z" fill="#4D44B5"/>
</svg>
