<svg width="30" height="38" viewBox="0 0 30 38" fill="none" xmlns="http://www.w3.org/2000/svg">
<path d="M21.1758 9.87499C21.1758 10.2187 21.1524 10.5625 21.1094 10.9023C21.1289 10.7656 21.1485 10.625 21.1641 10.4883C21.0703 11.168 20.8906 11.8281 20.6289 12.4609C20.6797 12.3359 20.7344 12.2109 20.7852 12.0859C20.5235 12.7031 20.1875 13.2812 19.7774 13.8125C19.8594 13.707 19.9414 13.6016 20.0235 13.4961C19.6172 14.0195 19.1445 14.4922 18.6211 14.8984C18.7266 14.8164 18.832 14.7344 18.9375 14.6523C18.4063 15.0586 17.8281 15.3984 17.211 15.6601C17.336 15.6094 17.461 15.5547 17.586 15.5039C16.9531 15.7656 16.293 15.9453 15.6133 16.0391C15.75 16.0195 15.8906 16 16.0274 15.9844C15.3438 16.0742 14.6563 16.0742 13.9727 15.9844C14.1094 16.0039 14.25 16.0234 14.3867 16.0391C13.707 15.9453 13.0469 15.7656 12.4141 15.5039C12.5391 15.5547 12.6641 15.6094 12.7891 15.6601C12.1719 15.3984 11.5938 15.0625 11.0625 14.6523C11.168 14.7344 11.2734 14.8164 11.3789 14.8984C10.8555 14.4922 10.3828 14.0195 9.97657 13.4961C10.0586 13.6016 10.1406 13.707 10.2227 13.8125C9.81642 13.2812 9.47657 12.7031 9.21485 12.0859C9.26563 12.2109 9.32032 12.3359 9.3711 12.4609C9.10938 11.8281 8.9297 11.168 8.83595 10.4883C8.85548 10.625 8.87501 10.7656 8.89063 10.9023C8.80079 10.2187 8.80079 9.53124 8.89063 8.84765C8.8711 8.98437 8.85157 9.12499 8.83595 9.26171C8.9297 8.58202 9.10938 7.92187 9.3711 7.28905C9.32032 7.41405 9.26563 7.53905 9.21485 7.66405C9.47657 7.04687 9.81251 6.46874 10.2227 5.93749C10.1406 6.04296 10.0586 6.14843 9.97657 6.2539C10.3828 5.73046 10.8555 5.2578 11.3789 4.85155C11.2734 4.93359 11.168 5.01562 11.0625 5.09765C11.5938 4.6914 12.1719 4.35155 12.7891 4.08984C12.6641 4.14062 12.5391 4.1953 12.4141 4.24609C13.0469 3.98437 13.707 3.80468 14.3867 3.71093C14.25 3.73046 14.1094 3.74999 13.9727 3.76562C14.6563 3.67577 15.3438 3.67577 16.0274 3.76562C15.8906 3.74609 15.75 3.72655 15.6133 3.71093C16.293 3.80468 16.9531 3.98437 17.586 4.24609C17.461 4.1953 17.336 4.14062 17.211 4.08984C17.8281 4.35155 18.4063 4.68749 18.9375 5.09765C18.832 5.01562 18.7266 4.93359 18.6211 4.85155C19.1445 5.2578 19.6172 5.73046 20.0235 6.2539C19.9414 6.14843 19.8594 6.04296 19.7774 5.93749C20.1836 6.46874 20.5235 7.04687 20.7852 7.66405C20.7344 7.53905 20.6797 7.41405 20.6289 7.28905C20.8906 7.92187 21.0703 8.58202 21.1641 9.26171C21.1445 9.12499 21.125 8.98437 21.1094 8.84765C21.1524 9.18749 21.1719 9.53124 21.1758 9.87499C21.1797 10.6914 21.8906 11.4766 22.7383 11.4375C23.5821 11.3984 24.3047 10.75 24.3008 9.87499C24.293 8.0039 23.7305 6.08984 22.6289 4.5664C22.3321 4.15624 22.0156 3.7539 21.6641 3.39062C21.3086 3.02343 20.918 2.70702 20.5117 2.39843C19.7735 1.83593 18.9492 1.42187 18.0742 1.10155C14.5469 -0.191414 10.293 0.960929 7.90626 3.86718C7.57813 4.26562 7.26563 4.67968 7.00001 5.12499C6.73438 5.5664 6.52735 6.03515 6.33594 6.51171C5.97657 7.39452 5.79297 8.33202 5.71875 9.28124C5.57422 11.1406 6.0586 13.082 7.02735 14.6758C7.96094 16.2148 9.3711 17.5351 11.0195 18.2812C11.5039 18.5 12 18.7031 12.5156 18.8476C13.0274 18.9883 13.5469 19.0664 14.0742 19.1289C15.0352 19.2422 16.0156 19.1641 16.9649 18.9726C20.5703 18.2383 23.5899 15.1328 24.1485 11.4883C24.2305 10.957 24.293 10.4258 24.293 9.88671C24.2969 9.07031 23.5703 8.28515 22.7305 8.32421C21.8867 8.35155 21.1758 8.99999 21.1758 9.87499ZM26.3594 34.3008C25.5938 34.3008 24.8281 34.3008 24.0625 34.3008C22.2383 34.3008 20.418 34.3008 18.5938 34.3008C16.3985 34.3008 14.2031 34.3008 12.0039 34.3008C10.1094 34.3008 8.21485 34.3008 6.31641 34.3008C5.42969 34.3008 4.54297 34.3086 3.65625 34.3008C3.5586 34.3008 3.46094 34.293 3.36719 34.2812C3.50391 34.3008 3.64453 34.3203 3.78125 34.3359C3.625 34.3125 3.47657 34.2695 3.33203 34.2109C3.45703 34.2617 3.58203 34.3164 3.70703 34.3672C3.55078 34.3008 3.40625 34.2148 3.26953 34.1094C3.375 34.1914 3.48047 34.2734 3.58594 34.3555C3.46875 34.2578 3.35938 34.1523 3.26563 34.0351C3.34766 34.1406 3.42969 34.2461 3.51172 34.3516C3.40625 34.2148 3.32422 34.0703 3.25391 33.9141C3.30469 34.0391 3.35938 34.1641 3.41016 34.2891C3.35157 34.1445 3.3125 33.9922 3.28516 33.8398C3.30469 33.9766 3.32422 34.1172 3.33985 34.2539C3.27735 33.7812 3.32031 33.2812 3.32031 32.8047C3.32031 32.2461 3.32031 31.6914 3.32031 31.1328C3.32031 30.7148 3.34375 30.3008 3.39844 29.8867C3.37891 30.0234 3.35938 30.1641 3.34375 30.3008C3.45313 29.5 3.66407 28.7148 3.98047 27.9687C3.92969 28.0937 3.875 28.2187 3.82422 28.3437C4.12891 27.6328 4.51953 26.9648 4.99219 26.3516C4.91016 26.457 4.82813 26.5625 4.7461 26.668C5.21875 26.0625 5.76172 25.5156 6.3711 25.043C6.26563 25.125 6.16016 25.207 6.05469 25.2891C6.66797 24.8164 7.33594 24.4258 8.04688 24.1211C7.92188 24.1719 7.79688 24.2266 7.67188 24.2773C8.41798 23.9648 9.19923 23.75 10.0039 23.6406C9.8672 23.6601 9.72657 23.6797 9.58985 23.6953C10.168 23.6211 10.7422 23.6172 11.3242 23.6172C12.0391 23.6172 12.7539 23.6172 13.4688 23.6172C15.1367 23.6172 16.8047 23.6172 18.4727 23.6172C19.1172 23.6172 19.7578 23.6133 20.4024 23.6953C20.2656 23.6758 20.125 23.6562 19.9883 23.6406C20.7891 23.75 21.5742 23.9609 22.3203 24.2773C22.1953 24.2266 22.0703 24.1719 21.9453 24.1211C22.6563 24.4258 23.3242 24.8164 23.9375 25.2891C23.8321 25.207 23.7266 25.125 23.6211 25.043C24.2266 25.5156 24.7735 26.0586 25.2461 26.668C25.1641 26.5625 25.0821 26.457 25 26.3516C25.4727 26.9648 25.8633 27.6328 26.168 28.3437C26.1172 28.2187 26.0625 28.0937 26.0117 27.9687C26.3242 28.7148 26.5391 29.4961 26.6485 30.3008C26.6289 30.1641 26.6094 30.0234 26.5938 29.8867C26.668 30.4766 26.6719 31.0625 26.6719 31.6562C26.6719 32.3008 26.6719 32.9453 26.6719 33.5898C26.6719 33.8125 26.6797 34.0351 26.6524 34.2539C26.6719 34.1172 26.6914 33.9766 26.7071 33.8398C26.6836 33.9961 26.6406 34.1445 26.5821 34.2891C26.6328 34.1641 26.6875 34.0391 26.7383 33.9141C26.6719 34.0703 26.586 34.2148 26.4805 34.3516C26.5625 34.2461 26.6446 34.1406 26.7266 34.0351C26.6289 34.1523 26.5235 34.2617 26.4063 34.3555C26.5117 34.2734 26.6172 34.1914 26.7227 34.1094C26.586 34.2148 26.4414 34.2969 26.2852 34.3672C26.4102 34.3164 26.5352 34.2617 26.6602 34.2109C26.5156 34.2695 26.3633 34.3086 26.211 34.3359C26.3477 34.3164 26.4883 34.2969 26.625 34.2812C26.5391 34.293 26.4492 34.2969 26.3594 34.3008C25.9571 34.3047 25.543 34.4726 25.2539 34.7578C24.9844 35.0273 24.7774 35.4726 24.7969 35.8633C24.836 36.6992 25.4844 37.4375 26.3594 37.4258C27.8789 37.4023 29.2149 36.4101 29.6602 34.9531C29.836 34.375 29.7969 33.7539 29.7969 33.1601C29.7969 31.8008 29.8399 30.4531 29.6055 29.1055C29.2617 27.1328 28.2696 25.2773 26.9102 23.8203C25.5508 22.3633 23.7227 21.293 21.7891 20.8164C20.6797 20.543 19.5625 20.5 18.4297 20.5C17.2656 20.5 16.1055 20.5 14.9414 20.5C13.793 20.5 12.6484 20.5 11.5 20.5C10.3399 20.5 9.18751 20.5547 8.0586 20.8555C6.14063 21.3633 4.33594 22.4453 3.00391 23.9141C1.66016 25.3945 0.6875 27.2539 0.371094 29.2383C0.160156 30.5703 0.203124 31.9062 0.203124 33.25C0.203124 33.8672 0.167968 34.5117 0.390625 35.1016C0.679688 35.8594 1.14063 36.457 1.81641 36.9062C2.34375 37.2539 3.01172 37.4219 3.63672 37.4297C3.94141 37.4336 4.2461 37.4297 4.55078 37.4297C5.33204 37.4297 6.10938 37.4297 6.89063 37.4297C8.00001 37.4297 9.10548 37.4297 10.2149 37.4297C11.5039 37.4297 12.793 37.4297 14.082 37.4297C15.4063 37.4297 16.7266 37.4297 18.0508 37.4297C19.2617 37.4297 20.4688 37.4297 21.6797 37.4297C22.6289 37.4297 23.5781 37.4297 24.5235 37.4297C25.0664 37.4297 25.6094 37.4297 26.1524 37.4297C26.2227 37.4297 26.293 37.4297 26.3633 37.4297C27.1797 37.4297 27.9649 36.7109 27.9258 35.8672C27.8867 35.0156 27.2383 34.3008 26.3594 34.3008Z" fill="#4D44B5"/>
</svg>
